<svg width="64" height="64" viewBox="0 0 64 64" fill="none" xmlns="http://www.w3.org/2000/svg">
  <path d="M50.592 2.291L32 20.884C25.803 14.689 19.604 8.488 13.406 2.291C6.236 -4.879 -4.878 6.239 2.286 13.411C8.485 19.604 14.686 25.806 20.878 32.003C14.6832 38.2028 8.48583 44.4002 2.286 50.595C-4.878 57.763 6.237 68.878 13.406 61.715C19.603 55.516 25.802 49.316 31.999 43.121L50.591 61.715C57.761 68.883 68.878 57.764 61.711 50.595C55.512 44.396 49.315 38.199 43.114 32.001C49.314 25.802 55.511 19.603 61.711 13.405C68.879 6.239 57.762 -4.879 50.591 2.295" fill="white"/>
</svg>
